# xmcd
#
# Track frame offsets: 
#        150
#        18697
#        38508
#        55885
#        80490
#        94656
#        119360
#        141949
#        164519
#        185636
#        207369
#        227139
#        246467
#
# Disc length: 3590 seconds
#
# Revision: 0
# Processed by: cddbd v1.5.2PL0 Copyright (c) Steve Scherf et al.
# Submitted via: ExactAudioCopy v1.0b3
#
DISCID=b80e040d
DTITLE=Samuel Hernández - Por Si No Hay Mañna
DYEAR=2009
DGENRE=Contemporánea Internacional
TTITLE0=Por Si No Hay Mañana
TTITLE1=Sigo Levantando Las Manos
TTITLE2=Cristo Vive
TTITLE3=Estamos Aquí Para Adorar
TTITLE4=Levántate y Sana
TTITLE5=Amor en Medio del Dolor
TTITLE6=No ha sido fácil pero estoy de Pie
TTITLE7=Grande es El Señor
TTITLE8=Je´sus confió en Tí
TTITLE9=Detente Ansiedad
TTITLE10=Procuro ser como Jesús
TTITLE11=Niños Especiales
TTITLE12=P.R. No Desmayes
EXTD=
EXTT0=
EXTT1=
EXTT2=
EXTT3=
EXTT4=
EXTT5=
EXTT6=
EXTT7=
EXTT8=
EXTT9=
EXTT10=
EXTT11=
EXTT12=
PLAYORDER=
